<?xml version="1.0" encoding="iso-8859-1"?>
<!-- Uploaded to: SVG Repo, www.svgrepo.com, Generator: SVG Repo Mixer Tools -->
<!DOCTYPE svg PUBLIC "-//W3C//DTD SVG 1.1//EN" "http://www.w3.org/Graphics/SVG/1.1/DTD/svg11.dtd">
<svg fill="#000000" height="800px" width="800px" version="1.1" id="Capa_1" xmlns="http://www.w3.org/2000/svg" xmlns:xlink="http://www.w3.org/1999/xlink" 
	 viewBox="0 0 351.228 351.228" xml:space="preserve">
<g>
	<path d="M258.915,27.652c-1.161-0.642-2.53-0.794-3.803-0.428c-1.275,0.367-2.35,1.226-2.992,2.387l-21.758,39.39
		c-1.335,2.417-0.458,5.459,1.96,6.794c37.498,20.713,60.793,60.155,60.793,102.933c0,64.79-52.71,117.5-117.5,117.5
		s-117.5-52.71-117.5-117.5c0-42.778,23.294-82.22,60.792-102.933c2.418-1.335,3.294-4.377,1.96-6.794l-21.758-39.39
		c-0.642-1.161-1.717-2.02-2.992-2.387c-1.272-0.368-2.642-0.214-3.803,0.428c-55.02,30.391-89.2,88.28-89.2,151.076
		c0,95.117,77.383,172.5,172.5,172.5s172.5-77.383,172.5-172.5C348.114,115.933,313.935,58.043,258.915,27.652z"/>
	<path d="M153.114,181.16h45c2.761,0,5-2.239,5-5V5c0-2.761-2.239-5-5-5h-45c-2.761,0-5,2.239-5,5v171.16
		C148.114,178.921,150.353,181.16,153.114,181.16z"/>
</g>
</svg>