<svg version="1.1" id="Layer_1" xmlns="http://www.w3.org/2000/svg" xmlns:xlink="http://www.w3.org/1999/xlink" x="0px" y="0px"
	 width="100%" viewBox="0 0 116 116" enable-background="new 0 0 116 116" xml:space="preserve">
<path fill="#FDFDFD" opacity="1.000000" stroke="none" 
	d="
M1.000000,41.000000 
	C1.000000,27.333336 1.000000,14.166670 1.000000,1.000004 
	C39.666660,1.000002 78.333321,1.000002 116.999985,1.000001 
	C116.999992,39.666656 116.999992,78.333313 117.000000,116.999977 
	C78.333351,116.999985 39.666698,116.999985 1.000023,116.999992 
	C1.000000,91.833336 1.000000,66.666664 1.000000,41.000000 
M8.961516,53.969284 
	C9.282176,56.339531 9.602835,58.709774 9.946733,61.991337 
	C9.990367,65.664116 10.034000,69.336899 10.034292,73.896576 
	C10.051880,76.268166 10.069468,78.639763 10.038553,81.925018 
	C10.062078,85.287628 10.085601,88.650238 10.047695,92.943184 
	C10.047695,97.526108 10.047695,102.109032 10.047695,107.081100 
	C13.091187,107.081100 15.244114,107.081100 17.327238,107.853859 
	C17.164309,112.888306 19.133835,114.235359 24.283840,113.169426 
	C33.641418,111.232605 43.176830,110.154961 53.446533,108.878258 
	C55.298519,108.595619 57.150505,108.312973 59.859692,108.015007 
	C67.243301,107.658447 74.626907,107.301895 82.946030,106.974831 
	C90.487587,106.974831 98.029144,106.974831 106.028770,106.974831 
	C106.028770,104.101677 106.028770,101.981476 106.810257,99.873779 
	C109.008331,98.680351 113.591629,100.653938 112.741455,95.412865 
	C111.176476,85.765198 109.607430,76.118187 108.025307,66.511993 
	C108.025307,66.511993 108.058464,66.479263 108.079292,65.566551 
	C107.674911,62.798569 107.270531,60.030586 106.950043,56.388763 
	C106.629829,50.591198 106.309608,44.793636 106.004997,38.059677 
	C106.004997,29.199692 106.004997,20.339706 106.004997,10.986900 
	C103.170311,10.986900 101.051910,10.986900 98.929718,10.132352 
	C98.632812,4.037859 98.633385,4.041928 92.367485,4.926319 
	C91.545746,5.042301 90.702881,5.028818 89.889549,5.180928 
	C81.291344,6.788970 72.697151,8.418447 63.324028,9.931232 
	C61.904339,9.775320 60.467564,9.395739 59.067959,9.502668 
	C53.365040,9.938370 47.673500,10.523030 41.045399,11.023987 
	C30.876804,11.023987 20.708210,11.023987 9.994412,11.023987 
	C9.994412,13.819927 9.994412,15.926392 9.215498,18.052301 
	C7.347873,18.566982 5.480248,19.081661 3.234812,19.700459 
	C5.169028,31.028784 7.055855,42.079556 8.961516,53.969284 
z"/>
<path fill="#EAE2E1" opacity="1.000000" stroke="none" 
	d="
M108.058464,66.479263 
	C108.058464,66.479263 108.025307,66.511993 107.685066,66.735336 
	C106.880608,68.969147 106.416389,70.979622 105.605507,73.031929 
	C104.030510,74.336609 102.650269,75.485497 101.601715,76.883209 
	C98.171677,81.455437 95.344948,86.586502 91.404564,90.647118 
	C83.605095,98.684570 74.060410,103.539368 62.575668,104.215538 
	C61.136696,104.300262 56.993362,103.832443 59.002491,108.030334 
	C57.150505,108.312973 55.298519,108.595619 53.075668,108.506866 
	C52.138096,107.720184 51.571384,107.304886 50.957428,106.536804 
	C48.963902,104.843330 47.196758,102.944389 45.042118,102.252975 
	C31.533140,97.917976 20.673992,90.658302 14.874042,77.050102 
	C14.142481,75.333672 11.717846,74.338837 10.077636,73.009674 
	C10.034000,69.336899 9.990367,65.664116 10.230688,61.264194 
	C10.352487,58.029743 10.190330,55.522430 10.035749,52.549648 
	C10.138723,47.731010 10.234119,43.377846 10.655230,38.962399 
	C11.399391,38.642662 11.986431,38.486843 12.211802,38.112991 
	C19.072060,26.732964 28.322021,18.099802 40.728428,13.006164 
	C41.313572,12.765924 41.568863,11.722286 41.977768,11.052798 
	C47.673500,10.523030 53.365040,9.938370 59.067959,9.502668 
	C60.467564,9.395739 61.904339,9.775320 63.944389,10.319366 
	C67.705185,10.856602 70.845612,11.005705 74.040314,11.501872 
	C75.329185,12.839290 76.495728,13.932732 77.810951,14.800948 
	C81.995338,17.563175 86.695358,19.739643 90.337051,23.079237 
	C94.899002,27.262739 98.561325,32.418049 102.729721,37.047863 
	C103.539093,37.946827 104.888885,38.359234 105.989395,38.996071 
	C106.309608,44.793636 106.629829,50.591198 106.662949,57.098404 
	C106.546364,60.774200 104.133926,64.241562 108.058464,66.479263 
M93.973740,80.236031 
	C93.932236,79.736702 93.890739,79.237381 93.793304,78.424210 
	C93.793304,78.424210 93.766975,78.106506 94.379890,78.016602 
	C94.586281,78.010315 94.792679,78.004028 95.700447,77.884392 
	C101.099960,73.024574 99.147499,65.968063 101.081047,60.091537 
	C103.870239,51.614479 98.643936,45.578129 95.226578,39.028065 
	C94.476768,37.590893 92.128387,36.987740 90.185287,35.537529 
	C90.098328,35.368954 90.011360,35.200375 90.469391,34.616474 
	C89.553101,32.710388 89.145401,30.030264 87.630653,29.034986 
	C81.725388,25.154882 75.770287,21.026575 69.246651,18.516188 
	C64.206764,16.576767 57.766689,15.161133 52.878494,16.622122 
	C44.021439,19.269327 35.229008,23.141171 28.362080,29.916203 
	C27.275309,30.988428 26.771521,32.651546 25.505234,34.387630 
	C24.991238,35.258972 24.477242,36.130310 23.263178,37.078819 
	C22.182278,38.043739 20.804209,38.822906 20.066849,40.002563 
	C13.339298,50.765549 12.704743,61.975414 18.251177,73.372742 
	C19.741125,76.434433 21.975302,79.133949 24.187649,82.376526 
	C24.399748,82.643654 24.669271,82.825806 25.009222,83.656349 
	C25.190760,84.279755 25.171234,85.132553 25.582914,85.493378 
	C39.968536,98.102020 55.898998,104.775162 74.839211,96.790710 
	C81.901062,93.813705 88.725060,89.934113 93.425102,82.776390 
	C93.617737,82.179962 93.810364,81.583542 93.973740,80.236031 
z"/>
<path fill="#E3DBDB" opacity="1.000000" stroke="none" 
	d="
M105.997192,38.527874 
	C104.888885,38.359234 103.539093,37.946827 102.729721,37.047863 
	C98.561325,32.418049 94.899002,27.262739 90.337051,23.079237 
	C86.695358,19.739643 81.995338,17.563175 77.810951,14.800948 
	C76.495728,13.932732 75.329185,12.839290 74.506721,11.439503 
	C82.923737,11.015679 90.928619,11.001289 98.933502,10.986900 
	C101.051910,10.986900 103.170311,10.986900 106.004997,10.986900 
	C106.004997,20.339706 106.004997,29.199692 105.997192,38.527874 
z"/>
<path fill="#E1D9DA" opacity="1.000000" stroke="none" 
	d="
M41.511581,11.038393 
	C41.568863,11.722286 41.313572,12.765924 40.728428,13.006164 
	C28.322021,18.099802 19.072060,26.732964 12.211802,38.112991 
	C11.986431,38.486843 11.399391,38.642662 10.560959,38.499565 
	C10.092119,31.410295 10.043265,24.721575 9.994412,18.032856 
	C9.994412,15.926392 9.994412,13.819927 9.994412,11.023987 
	C20.708210,11.023987 30.876804,11.023987 41.511581,11.038393 
z"/>
<path fill="#E2DADB" opacity="1.000000" stroke="none" 
	d="
M106.028763,99.861275 
	C106.028770,101.981476 106.028770,104.101677 106.028770,106.974831 
	C98.029144,106.974831 90.487587,106.974831 82.479530,106.596283 
	C83.146133,104.739265 84.009666,102.885559 85.457611,101.845345 
	C92.912506,96.489670 100.254417,91.106186 104.007599,82.244003 
	C104.255692,81.658180 105.288696,81.404770 106.013138,81.462563 
	C106.056030,87.906006 106.042397,93.883644 106.028763,99.861275 
z"/>
<path fill="#E7DFDE" opacity="1.000000" stroke="none" 
	d="
M105.956619,80.996750 
	C105.288696,81.404770 104.255692,81.658180 104.007599,82.244003 
	C100.254417,91.106186 92.912506,96.489670 85.457611,101.845345 
	C84.009666,102.885559 83.146133,104.739265 82.011772,106.581543 
	C74.626907,107.301895 67.243301,107.658447 59.431091,108.022675 
	C56.993362,103.832443 61.136696,104.300262 62.575668,104.215538 
	C74.060410,103.539368 83.605095,98.684570 91.404564,90.647118 
	C95.344948,86.586502 98.171677,81.455437 101.601715,76.883209 
	C102.650269,75.485497 104.030510,74.336609 105.663071,73.473923 
	C106.030403,76.248299 105.993515,78.622528 105.956619,80.996750 
z"/>
<path fill="#E7DFDE" opacity="1.000000" stroke="none" 
	d="
M10.055964,73.453125 
	C11.717846,74.338837 14.142481,75.333672 14.874042,77.050102 
	C20.673992,90.658302 31.533140,97.917976 45.042118,102.252975 
	C47.196758,102.944389 48.963902,104.843330 50.505493,106.590790 
	C47.069351,106.953232 44.037907,106.908897 40.943386,106.532730 
	C38.905842,104.793701 37.101341,102.997589 34.927143,102.047401 
	C26.049604,98.167664 19.113365,92.250130 14.169992,83.873703 
	C13.400805,82.570335 11.476957,81.948395 10.087055,81.011353 
	C10.069468,78.639763 10.051880,76.268166 10.055964,73.453125 
z"/>
<path fill="#E4DBDC" opacity="1.000000" stroke="none" 
	d="
M10.062805,81.468185 
	C11.476957,81.948395 13.400805,82.570335 14.169992,83.873703 
	C19.113365,92.250130 26.049604,98.167664 34.927143,102.047401 
	C37.101341,102.997589 38.905842,104.793701 40.482616,106.591202 
	C36.058838,106.943398 32.032753,106.905281 27.998489,106.504532 
	C27.607662,105.269615 27.453190,104.137108 26.804464,103.568283 
	C23.232443,100.436295 19.647326,97.296997 15.837570,94.468857 
	C14.214684,93.264114 12.035505,92.808754 10.109125,92.012848 
	C10.085601,88.650238 10.062078,85.287628 10.062805,81.468185 
z"/>
<path fill="#E0D8D9" opacity="1.000000" stroke="none" 
	d="
M10.078409,92.478012 
	C12.035505,92.808754 14.214684,93.264114 15.837570,94.468857 
	C19.647326,97.296997 23.232443,100.436295 26.804464,103.568283 
	C27.453190,104.137108 27.607662,105.269615 27.546871,106.561127 
	C23.867968,107.013931 20.632505,107.047516 17.397041,107.081100 
	C15.244114,107.081100 13.091187,107.081100 10.047695,107.081100 
	C10.047695,102.109032 10.047695,97.526108 10.078409,92.478012 
z"/>
<path fill="#8F8E8E" opacity="1.000000" stroke="none" 
	d="
M17.362141,107.467484 
	C20.632505,107.047516 23.867968,107.013931 27.555050,106.923752 
	C32.032753,106.905281 36.058838,106.943398 40.545692,106.923035 
	C44.037907,106.908897 47.069351,106.953232 50.552734,106.943573 
	C51.571384,107.304886 52.138096,107.720184 52.671417,108.427124 
	C43.176830,110.154961 33.641418,111.232605 24.283840,113.169426 
	C19.133835,114.235359 17.164309,112.888306 17.362141,107.467484 
z"/>
<path fill="#8C8C8B" opacity="1.000000" stroke="none" 
	d="
M98.931610,10.559626 
	C90.928619,11.001289 82.923737,11.015679 74.452454,11.092439 
	C70.845612,11.005705 67.705185,10.856602 64.333298,10.374756 
	C72.697151,8.418447 81.291344,6.788970 89.889549,5.180928 
	C90.702881,5.028818 91.545746,5.042301 92.367485,4.926319 
	C98.633385,4.041928 98.632812,4.037859 98.931610,10.559626 
z"/>
<path fill="#8A8B8B" opacity="1.000000" stroke="none" 
	d="
M106.013145,81.462563 
	C105.993515,78.622528 106.030403,76.248299 106.009735,73.432083 
	C106.416389,70.979622 106.880608,68.969147 107.692459,66.714790 
	C109.607430,76.118187 111.176476,85.765198 112.741455,95.412865 
	C113.591629,100.653938 109.008331,98.680351 106.419510,99.867523 
	C106.042397,93.883644 106.056030,87.906006 106.013145,81.462563 
z"/>
<path fill="#8E8D8D" opacity="1.000000" stroke="none" 
	d="
M9.604956,18.042580 
	C10.043265,24.721575 10.092119,31.410295 10.235245,38.561848 
	C10.234119,43.377846 10.138723,47.731010 9.762338,52.559807 
	C9.301793,53.067070 9.122237,53.098701 8.942681,53.130329 
	C7.055855,42.079556 5.169028,31.028784 3.234812,19.700459 
	C5.480248,19.081661 7.347873,18.566982 9.604956,18.042580 
z"/>
<path fill="#E1D9DA" opacity="1.000000" stroke="none" 
	d="
M8.952099,53.549805 
	C9.122237,53.098701 9.301793,53.067070 9.754761,53.025284 
	C10.190330,55.522430 10.352487,58.029743 10.219069,60.808537 
	C9.602835,58.709774 9.282176,56.339531 8.952099,53.549805 
z"/>
<path fill="#AAA7A7" opacity="1.000000" stroke="none" 
	d="
M108.068878,66.022903 
	C104.133926,64.241562 106.546364,60.774200 106.621002,57.535324 
	C107.270531,60.030586 107.674911,62.798569 108.068878,66.022903 
z"/>
<path fill="#EDE5E5" opacity="1.000000" stroke="none" 
	d="
M92.998955,83.002975 
	C88.725060,89.934113 81.901062,93.813705 74.839211,96.790710 
	C55.898998,104.775162 39.968536,98.102020 25.582914,85.493378 
	C25.171234,85.132553 25.190760,84.279755 25.236958,83.032753 
	C25.670086,81.272942 25.875479,80.136719 26.400723,79.000244 
	C27.147051,78.999985 27.573524,78.999992 28.005627,79.382187 
	C29.359957,81.179642 30.471277,83.042824 32.109814,83.911224 
	C34.977665,85.431152 38.178253,86.317314 41.222328,87.512573 
	C43.711269,88.489853 45.103256,87.907654 45.331493,85.009262 
	C46.110485,85.002197 46.555626,84.999290 47.324200,84.969025 
	C48.771099,84.959396 49.894558,84.977142 51.012352,85.329414 
	C51.004559,86.109901 51.002434,86.555862 51.006767,87.388809 
	C52.570389,93.755959 57.510757,92.055992 61.267014,91.786255 
	C64.827240,91.530602 67.263268,89.104546 67.374542,85.000763 
	C68.500275,85.004044 69.250862,85.007935 70.009567,85.387665 
	C71.457848,89.530151 73.689934,89.758469 76.907265,87.651146 
	C80.112198,85.551956 83.572495,83.842644 87.158752,81.984711 
	C87.396683,82.007034 87.873451,82.040497 88.153862,82.319687 
	C89.955833,82.733582 91.477394,82.868279 92.998955,83.002975 
z"/>
<path fill="#EEE6E5" opacity="1.000000" stroke="none" 
	d="
M25.998192,34.041466 
	C26.771521,32.651546 27.275309,30.988428 28.362080,29.916203 
	C35.229008,23.141171 44.021439,19.269327 52.878494,16.622122 
	C57.766689,15.161133 64.206764,16.576767 69.246651,18.516188 
	C75.770287,21.026575 81.725388,25.154882 87.630653,29.034986 
	C89.145401,30.030264 89.553101,32.710388 89.772919,34.846985 
	C87.373512,35.030846 85.670586,34.984200 83.972839,34.572495 
	C83.398293,33.077454 83.094406,31.617067 82.196869,30.867748 
	C71.204185,21.690380 53.405357,19.702572 41.044037,27.669254 
	C38.426289,29.356356 36.335548,31.861177 33.663292,34.002075 
	C32.548836,34.345314 31.773079,34.675724 30.628983,34.989338 
	C28.839825,34.662186 27.419008,34.351826 25.998192,34.041466 
z"/>
<path fill="#EFE7E8" opacity="1.000000" stroke="none" 
	d="
M94.999084,77.997734 
	C94.792679,78.004028 94.586281,78.010315 93.682510,78.029907 
	C91.351738,77.037216 89.718346,76.031204 87.821472,75.173294 
	C87.344505,75.875877 87.131027,76.430351 86.670944,76.766190 
	C86.280037,75.688583 86.135735,74.829597 86.141571,73.645889 
	C86.715385,72.245850 87.035446,71.114799 87.579071,70.103996 
	C92.047981,61.794556 91.057030,52.638737 84.884392,45.450066 
	C83.549995,46.290249 82.220337,47.127449 80.940643,47.604820 
	C79.808029,46.125019 78.625435,45.005047 77.315628,43.764606 
	C77.855438,42.619511 78.471992,41.311604 79.474106,39.992729 
	C80.634483,40.013390 81.409309,40.045013 82.431709,40.341839 
	C85.048637,40.382816 87.417984,40.158592 90.113525,40.075043 
	C92.196259,42.552021 93.819038,45.005169 95.736931,47.200500 
	C99.833206,51.889305 99.553696,56.894135 97.898460,62.513985 
	C96.422501,67.525162 95.927170,72.825180 94.999084,77.997734 
z"/>
<path fill="#EDE5E5" opacity="1.000000" stroke="none" 
	d="
M23.867838,81.999718 
	C21.975302,79.133949 19.741125,76.434433 18.251177,73.372742 
	C12.704743,61.975414 13.339298,50.765549 20.066849,40.002563 
	C20.804209,38.822906 22.182278,38.043739 23.663471,37.404404 
	C24.115589,38.462811 24.167414,39.195629 24.139429,40.306473 
	C24.040497,41.453751 24.021374,42.223007 23.963230,43.357838 
	C22.751305,49.021744 17.213047,52.963200 19.911612,59.600636 
	C21.719248,64.046730 22.025175,69.103355 22.716595,74.008820 
	C22.909365,76.753799 23.388601,79.376755 23.867838,81.999718 
z"/>
<path fill="#EEE6E5" opacity="1.000000" stroke="none" 
	d="
M95.349762,77.941063 
	C95.927170,72.825180 96.422501,67.525162 97.898460,62.513985 
	C99.553696,56.894135 99.833206,51.889305 95.736931,47.200500 
	C93.819038,45.005169 92.196259,42.552021 90.181808,39.680473 
	C90.121315,38.096985 90.318748,37.048748 90.516174,36.000507 
	C92.128387,36.987740 94.476768,37.590893 95.226578,39.028065 
	C98.643936,45.578129 103.870239,51.614479 101.081047,60.091537 
	C99.147499,65.968063 101.099960,73.024574 95.349762,77.941063 
z"/>
<path fill="#A39A9A" opacity="1.000000" stroke="none" 
	d="
M24.219238,39.928452 
	C24.167414,39.195629 24.115589,38.462811 24.013504,37.365818 
	C24.477242,36.130310 24.991238,35.258972 25.751713,34.214546 
	C27.419008,34.351826 28.839825,34.662186 30.506969,35.244007 
	C30.497263,36.016018 30.241226,36.516567 30.026377,37.384674 
	C30.348398,39.412491 30.629230,41.072754 30.547575,42.778641 
	C29.456654,42.881340 28.728218,42.938423 27.677929,42.949341 
	C26.922987,42.885323 26.489901,42.867474 26.036491,42.521805 
	C25.417192,41.438808 24.818214,40.683628 24.219238,39.928452 
z"/>
<path fill="#3E4671" opacity="1.000000" stroke="none" 
	d="
M24.027744,82.188126 
	C23.388601,79.376755 22.909365,76.753799 23.118931,74.085953 
	C25.172119,74.067390 26.536509,74.093704 27.947376,74.495972 
	C27.356192,76.248116 26.718531,77.624313 26.080870,79.000504 
	C25.875479,80.136719 25.670086,81.272942 25.230457,82.666077 
	C24.669271,82.825806 24.399748,82.643654 24.027744,82.188126 
z"/>
<path fill="#8A7F79" opacity="1.000000" stroke="none" 
	d="
M90.350731,35.769020 
	C90.318748,37.048748 90.121315,38.096985 89.855606,39.539795 
	C87.417984,40.158592 85.048637,40.382816 82.706459,40.314079 
	C83.232063,39.797737 83.730499,39.574360 84.495964,39.323837 
	C85.122307,39.285053 85.481621,39.273415 86.082458,39.437504 
	C86.533669,38.760662 86.743355,37.908092 86.589691,37.032303 
	C85.500671,36.971096 84.775002,36.933105 84.049362,36.612652 
	C84.067902,35.954720 84.086403,35.579254 84.095230,35.124527 
	C84.085556,35.045269 83.967659,34.937557 83.967659,34.937557 
	C85.670586,34.984200 87.373512,35.030846 89.500412,35.054646 
	C90.011360,35.200375 90.098328,35.368954 90.350731,35.769020 
z"/>
<path fill="#1D265A" opacity="1.000000" stroke="none" 
	d="
M88.084961,75.025200 
	C89.718346,76.031204 91.351738,77.037216 93.376053,78.074860 
	C93.766975,78.106506 93.793304,78.424210 93.422684,78.658234 
	C91.984001,79.141876 90.915947,79.391495 89.847893,79.641113 
	C89.899757,80.089783 89.951622,80.538445 90.003487,80.987114 
	C91.336662,80.987114 92.669830,80.987114 94.002998,80.987114 
	C93.810364,81.583542 93.617737,82.179962 93.212029,82.889679 
	C91.477394,82.868279 89.955833,82.733582 88.187027,81.881409 
	C87.988167,79.117683 88.036568,77.071442 88.084961,75.025200 
z"/>
<path fill="#C4C2CD" opacity="1.000000" stroke="none" 
	d="
M93.988373,80.611572 
	C92.669830,80.987114 91.336662,80.987114 90.003487,80.987114 
	C89.951622,80.538445 89.899757,80.089783 89.847893,79.641113 
	C90.915947,79.391495 91.984001,79.141876 93.450645,78.815155 
	C93.890739,79.237381 93.932236,79.736702 93.988373,80.611572 
z"/>
<path fill="#F8F1F2" opacity="1.000000" stroke="none" 
	d="
M70.001442,85.011826 
	C69.250862,85.007935 68.500275,85.004044 67.030029,84.997498 
	C65.507484,85.324417 64.704597,85.653999 63.682915,85.989288 
	C63.464115,85.994995 63.024399,85.999260 63.018013,85.635269 
	C63.025688,84.545853 63.039749,83.820435 63.342285,82.906021 
	C64.064903,80.806030 64.499046,78.895042 64.899368,76.707245 
	C64.183456,75.813217 63.501362,75.195999 62.878235,74.193420 
	C64.955940,70.878204 66.974678,67.948357 69.346664,65.052048 
	C71.148956,63.788448 72.598000,62.491314 74.329926,61.017227 
	C75.123657,59.935513 75.634506,59.030746 76.134018,58.090179 
	C76.122681,58.054379 76.050095,58.073727 76.352600,58.090508 
	C76.795540,57.753040 76.935974,57.398792 77.071335,57.073990 
	C77.066261,57.103439 77.125862,57.107796 77.408073,57.067318 
	C78.147362,56.689404 78.604439,56.351967 79.393890,56.210800 
	C79.712326,60.118000 79.891655,63.843632 79.611092,67.534302 
	C79.446030,69.705566 78.550591,71.821312 77.751091,74.111374 
	C77.707550,74.790901 77.896553,75.321068 78.282005,75.913864 
	C78.478447,75.976479 78.865715,76.118149 78.840271,76.484879 
	C77.806587,79.181114 76.798332,81.510612 75.790077,83.840103 
	C75.358833,83.680763 74.927582,83.521416 74.496338,83.362068 
	C74.496338,80.784798 74.496338,78.207535 74.496338,75.630264 
	C71.781937,78.404121 75.107071,83.507896 70.001442,85.011826 
M68.139687,80.834839 
	C70.591164,80.163223 70.709549,79.267311 67.995728,75.560631 
	C67.995728,77.064240 67.995728,78.567856 68.139687,80.834839 
z"/>
<path fill="#EAE5E8" opacity="1.000000" stroke="none" 
	d="
M26.400723,79.000244 
	C26.718531,77.624313 27.356192,76.248116 27.991734,74.431335 
	C27.989614,73.990738 28.092634,73.872543 28.469822,73.956253 
	C31.563669,74.027702 34.280327,74.015457 37.229713,74.274734 
	C38.641857,74.697411 39.821281,74.848549 40.955467,75.392914 
	C40.048138,78.710457 38.303177,81.955711 43.720871,82.296570 
	C44.201534,82.326820 44.574600,84.067276 44.997635,85.013428 
	C45.103256,87.907654 43.711269,88.489853 41.222328,87.512573 
	C38.178253,86.317314 34.977665,85.431152 32.109814,83.911224 
	C30.471277,83.042824 29.359957,81.179642 28.289429,79.347031 
	C28.889542,78.625153 29.211477,78.320618 29.533415,78.016083 
	C29.324242,77.834854 29.115068,77.653625 28.905895,77.472397 
	C28.603931,77.981598 28.301966,78.490799 28.000000,79.000000 
	C27.573524,78.999992 27.147051,78.999985 26.400723,79.000244 
z"/>
<path fill="#EAE5E8" opacity="1.000000" stroke="none" 
	d="
M70.009567,85.387665 
	C75.107071,83.507896 71.781937,78.404121 74.496338,75.630264 
	C74.496338,78.207535 74.496338,80.784798 74.496338,83.362068 
	C74.927582,83.521416 75.358833,83.680763 75.790077,83.840103 
	C76.798332,81.510612 77.806587,79.181114 79.173553,76.446014 
	C81.685326,75.350479 83.838371,74.660553 85.991425,73.970619 
	C86.135735,74.829597 86.280037,75.688583 86.687996,77.182175 
	C86.941368,79.198654 86.931099,80.580521 86.920822,81.962379 
	C83.572495,83.842644 80.112198,85.551956 76.907265,87.651146 
	C73.689934,89.758469 71.457848,89.530151 70.009567,85.387665 
z"/>
<path fill="#EAE5E8" opacity="1.000000" stroke="none" 
	d="
M63.901718,85.983582 
	C64.704597,85.653999 65.507484,85.324417 66.654877,84.998100 
	C67.263268,89.104546 64.827240,91.530602 61.267014,91.786255 
	C57.510757,92.055992 52.570389,93.755959 51.417503,87.442245 
	C55.924042,87.545547 60.235588,90.229279 63.901718,85.983582 
z"/>
<path fill="#F5EEF0" opacity="1.000000" stroke="none" 
	d="
M45.331490,85.009262 
	C44.574600,84.067276 44.201534,82.326820 43.720871,82.296570 
	C38.303177,81.955711 40.048138,78.710457 41.208801,75.395157 
	C41.676270,75.006042 41.845161,75.007904 42.045128,75.310684 
	C42.768841,75.733780 43.461479,75.855949 44.378750,75.869431 
	C45.029434,75.502594 45.455490,75.244453 45.910011,75.417839 
	C46.297478,78.257393 46.656479,80.665421 47.011154,83.393936 
	C47.004810,84.141754 47.002789,84.569077 47.000763,84.996391 
	C46.555626,84.999290 46.110485,85.002197 45.331490,85.009262 
z"/>
<path fill="#F8F1F2" opacity="1.000000" stroke="none" 
	d="
M47.324203,84.969025 
	C47.002789,84.569077 47.004810,84.141754 47.323875,83.333710 
	C49.434055,82.637230 51.227196,82.321480 53.368713,82.001305 
	C54.812000,81.664558 55.906902,81.332230 57.282040,81.166351 
	C58.705605,81.920609 59.848934,82.508415 60.804806,83.342285 
	C60.074268,84.392426 59.531181,85.196518 58.657017,86.000275 
	C57.884499,85.999962 57.443062,85.999985 56.956711,85.674652 
	C55.935764,85.231659 54.959728,85.114006 53.612766,84.997360 
	C52.500565,84.997200 51.759293,84.996048 51.018021,84.994896 
	C49.894558,84.977142 48.771099,84.959396 47.324203,84.969025 
z"/>
<path fill="#F5EEF0" opacity="1.000000" stroke="none" 
	d="
M57.001625,86.000000 
	C57.443062,85.999985 57.884499,85.999962 59.060577,86.002197 
	C60.871609,86.002716 61.948006,86.000984 63.024399,85.999260 
	C63.024399,85.999260 63.464115,85.994995 63.682915,85.989288 
	C60.235588,90.229279 55.924042,87.545547 51.411041,87.055275 
	C51.002434,86.555862 51.004559,86.109901 51.012352,85.329414 
	C51.759293,84.996048 52.500565,84.997200 53.728714,85.251007 
	C55.144268,85.669106 56.072948,85.834557 57.001625,86.000000 
z"/>
<path fill="#DDDBE4" opacity="1.000000" stroke="none" 
	d="
M87.158752,81.984711 
	C86.931099,80.580521 86.941368,79.198654 86.934601,77.400810 
	C87.131027,76.430351 87.344505,75.875877 87.821472,75.173294 
	C88.036568,77.071442 87.988167,79.117683 87.906616,81.602211 
	C87.873451,82.040497 87.396683,82.007034 87.158752,81.984711 
z"/>
<path fill="#F2EAE9" opacity="1.000000" stroke="none" 
	d="
M34.001991,33.989239 
	C36.335548,31.861177 38.426289,29.356356 41.044037,27.669254 
	C53.405357,19.702572 71.204185,21.690380 82.196869,30.867748 
	C83.094406,31.617067 83.398293,33.077454 83.972839,34.572495 
	C83.967659,34.937557 84.085556,35.045269 83.655502,35.035187 
	C81.148300,34.968441 79.071136,34.911777 76.988861,34.488609 
	C75.561455,32.764591 74.370537,30.791924 72.677208,30.155018 
	C64.950569,27.248821 56.900909,26.995581 49.000935,29.153210 
	C46.730392,29.773336 44.986332,32.321114 42.683872,34.020378 
	C41.944294,34.094498 41.521725,34.133301 40.657639,34.121651 
	C38.144741,34.043877 36.073368,34.016560 34.001991,33.989239 
z"/>
<path fill="#D1C8C8" opacity="1.000000" stroke="none" 
	d="
M33.663292,34.002075 
	C36.073368,34.016560 38.144741,34.043877 40.629025,34.426697 
	C41.019882,35.193478 40.997833,35.604763 40.558914,36.010036 
	C37.761463,36.669247 35.380882,37.334473 32.701691,37.880569 
	C31.597116,37.513332 30.791153,37.265224 29.985188,37.017117 
	C30.241226,36.516567 30.497263,36.016018 30.875313,35.260799 
	C31.773079,34.675724 32.548836,34.345314 33.663292,34.002075 
z"/>
<path fill="#F6EEED" opacity="1.000000" stroke="none" 
	d="
M86.141571,73.645889 
	C83.838371,74.660553 81.685326,75.350479 79.198990,76.079285 
	C78.865715,76.118149 78.478447,75.976479 78.263077,75.601471 
	C78.026352,74.804993 78.004997,74.383507 77.983643,73.962029 
	C78.550591,71.821312 79.446030,69.705566 79.611092,67.534302 
	C79.891655,63.843632 79.712326,60.118000 79.517815,55.874924 
	C79.222946,53.564137 79.136505,51.785484 79.025352,50.000862 
	C79.000633,49.994888 79.015869,50.043419 79.255096,50.008087 
	C79.717140,49.706165 79.792847,49.402866 79.865982,48.826965 
	C80.303902,48.382259 80.597282,48.173454 80.890671,47.964645 
	C82.220337,47.127449 83.549995,46.290249 84.884392,45.450066 
	C91.057030,52.638737 92.047981,61.794556 87.579071,70.103996 
	C87.035446,71.114799 86.715385,72.245850 86.141571,73.645889 
z"/>
<path fill="#F1CC33" opacity="1.000000" stroke="none" 
	d="
M80.940643,47.604816 
	C80.597282,48.173454 80.303902,48.382259 79.675079,48.927887 
	C79.101875,49.470226 78.993950,49.729797 79.015869,50.043419 
	C79.015869,50.043419 79.000633,49.994888 78.694397,50.088051 
	C77.234360,50.912537 76.080559,51.643864 74.663940,52.099342 
	C73.565094,50.586411 72.729073,49.349323 71.597710,47.982452 
	C71.556572,45.895767 71.810776,43.938862 72.418777,41.951683 
	C74.584335,41.264240 76.396095,40.607071 78.428360,39.958061 
	C78.648857,39.966221 79.088554,40.003696 79.088554,40.003696 
	C78.471992,41.311604 77.855438,42.619511 77.315628,43.764606 
	C78.625435,45.005047 79.808029,46.125019 80.940643,47.604816 
z"/>
<path fill="#CF9B4D" opacity="1.000000" stroke="none" 
	d="
M79.474106,39.992729 
	C79.088554,40.003696 78.648857,39.966221 78.585175,39.689228 
	C79.348236,39.271980 80.174988,39.131729 81.407883,39.007591 
	C82.619003,39.132797 83.423965,39.241890 84.228935,39.350983 
	C83.730499,39.574360 83.232063,39.797737 82.458878,40.048874 
	C81.409309,40.045013 80.634483,40.013390 79.474106,39.992729 
z"/>
<path fill="#F1E8E9" opacity="1.000000" stroke="none" 
	d="
M27.945255,74.055374 
	C26.536509,74.093704 25.172119,74.067390 23.405396,73.963936 
	C22.025175,69.103355 21.719248,64.046730 19.911612,59.600636 
	C17.213047,52.963200 22.751305,49.021744 24.307831,43.375774 
	C25.146572,42.968632 25.601692,42.909126 26.056814,42.849621 
	C26.489901,42.867474 26.922987,42.885323 27.677553,43.340630 
	C27.381414,45.426708 26.545723,47.029869 26.190643,48.733219 
	C25.401766,52.517513 24.050739,56.429737 24.410564,60.146358 
	C24.860817,64.796989 26.797562,69.303703 28.092634,73.872543 
	C28.092634,73.872543 27.989614,73.990738 27.945255,74.055374 
z"/>
<path fill="#B9B0B0" opacity="1.000000" stroke="none" 
	d="
M26.036491,42.521805 
	C25.601692,42.909126 25.146572,42.968632 24.346851,43.010201 
	C24.021374,42.223007 24.040497,41.453751 24.139427,40.306473 
	C24.818214,40.683628 25.417192,41.438808 26.036491,42.521805 
z"/>
<path fill="#F5EDEC" opacity="1.000000" stroke="none" 
	d="
M28.469822,73.956253 
	C26.797562,69.303703 24.860817,64.796989 24.410564,60.146358 
	C24.050739,56.429737 25.401766,52.517513 26.190643,48.733219 
	C26.545723,47.029869 27.381414,45.426708 27.999409,43.386795 
	C28.728218,42.938423 29.456654,42.881340 30.901047,42.853157 
	C32.754173,42.578411 33.891335,42.274765 35.030212,42.432156 
	C35.401943,46.593296 35.771954,50.293400 36.135883,54.398369 
	C36.291813,56.133118 36.453819,57.463005 36.459122,59.185867 
	C36.567734,62.306667 36.833061,65.034492 37.069862,68.207649 
	C37.026554,70.436386 37.011772,72.219803 36.996986,74.003212 
	C34.280327,74.015457 31.563669,74.027702 28.469822,73.956253 
z"/>
<path fill="#B9B0B0" opacity="1.000000" stroke="none" 
	d="
M35.028500,41.971123 
	C33.891335,42.274765 32.754173,42.578411 31.263535,42.807537 
	C30.629230,41.072754 30.348398,39.412491 30.026379,37.384674 
	C30.791153,37.265224 31.597116,37.513332 32.826012,38.144508 
	C33.836376,39.015644 34.423813,39.503716 35.002220,40.327045 
	C34.997265,41.109241 35.001343,41.556179 35.007080,41.994431 
	C35.008739,41.985744 35.028500,41.971119 35.028500,41.971123 
z"/>
<path fill="#B5A794" opacity="1.000000" stroke="none" 
	d="
M76.993980,34.855110 
	C79.071136,34.911777 81.148300,34.968441 83.665176,35.114449 
	C84.086403,35.579254 84.067902,35.954720 83.612808,36.662685 
	C81.428070,37.010075 79.679924,37.024967 77.484848,37.002319 
	C72.572159,37.260151 68.106384,37.555523 63.640606,37.850891 
	C63.619705,38.248112 63.598808,38.645332 63.577908,39.042557 
	C64.415520,39.410831 65.253128,39.779106 65.785378,40.368202 
	C64.114029,40.662941 62.748043,40.736866 61.376411,40.811092 
	C60.789825,36.478500 62.124363,34.741089 66.146477,34.994862 
	C69.745041,35.221916 73.376846,34.922329 76.993980,34.855110 
z"/>
<path fill="#EDC032" opacity="1.000000" stroke="none" 
	d="
M77.931770,37.039856 
	C79.679924,37.024967 81.428070,37.010075 83.612778,36.945152 
	C84.775002,36.933105 85.500671,36.971096 86.572350,37.354492 
	C86.559219,38.220528 86.200081,38.741154 85.840935,39.261780 
	C85.481621,39.273415 85.122307,39.285053 84.495964,39.323837 
	C83.423965,39.241890 82.619003,39.132797 81.221756,38.756386 
	C79.730247,38.005993 78.831009,37.522926 77.931770,37.039856 
z"/>
<path fill="#CF9B4D" opacity="1.000000" stroke="none" 
	d="
M86.082458,39.437508 
	C86.200081,38.741154 86.559219,38.220528 86.935699,37.377708 
	C86.743355,37.908092 86.533669,38.760662 86.082458,39.437508 
z"/>
<path fill="#FEF9F8" opacity="1.000000" stroke="none" 
	d="
M68.993423,65.018509 
	C66.974678,67.948357 64.955940,70.878204 62.531273,74.091347 
	C61.417030,74.254730 60.708721,74.134819 59.935356,73.651611 
	C55.542706,71.194275 51.215107,69.100235 46.778915,66.607285 
	C46.556541,61.468422 46.442764,56.728474 46.511143,51.790344 
	C46.795944,51.061428 46.898590,50.530701 47.345116,49.944687 
	C51.277164,48.257641 54.727493,45.928734 58.491158,45.184589 
	C62.482304,44.395470 67.126724,44.218281 69.011887,49.647770 
	C69.152077,50.051540 70.850655,49.914227 71.885094,50.414104 
	C70.961426,55.539341 69.977425,60.278927 68.993423,65.018509 
z"/>
<path fill="#B89B8B" opacity="1.000000" stroke="none" 
	d="
M69.346664,65.052048 
	C69.977425,60.278927 70.961426,55.539341 71.963989,50.099350 
	C71.952728,48.970039 71.922897,48.541138 71.893066,48.112232 
	C72.729073,49.349323 73.565094,50.586411 74.550133,52.339218 
	C75.508057,54.272560 76.316963,55.690178 77.125862,57.107796 
	C77.125862,57.107796 77.066261,57.103439 76.832718,57.168335 
	C76.416145,57.513397 76.233124,57.793564 76.050095,58.073727 
	C76.050095,58.073727 76.122681,58.054379 75.760872,58.096436 
	C74.948395,59.157059 74.497719,60.175621 74.047050,61.194183 
	C72.598000,62.491314 71.148956,63.788448 69.346664,65.052048 
z"/>
<path fill="#D7D5DE" opacity="1.000000" stroke="none" 
	d="
M64.933182,76.984055 
	C64.499046,78.895042 64.064903,80.806030 63.049065,82.875099 
	C62.273403,83.003693 62.079437,82.974197 61.989254,82.569122 
	C59.433384,80.963821 57.673500,79.135834 57.952835,75.990997 
	C57.959728,76.025482 57.889572,76.030762 58.201210,76.365471 
	C60.652962,76.794800 62.793072,76.889427 64.933182,76.984055 
z"/>
<path fill="#A38E85" opacity="1.000000" stroke="none" 
	d="
M77.408073,57.067318 
	C76.316963,55.690178 75.508057,54.272560 74.812958,52.615067 
	C76.080559,51.643864 77.234360,50.912537 78.719116,50.094021 
	C79.136505,51.785484 79.222946,53.564137 79.185455,55.678661 
	C78.604439,56.351967 78.147362,56.689404 77.408073,57.067318 
z"/>
<path fill="#EAE5E8" opacity="1.000000" stroke="none" 
	d="
M68.067703,80.453156 
	C67.995728,78.567856 67.995728,77.064240 67.995728,75.560631 
	C70.709549,79.267311 70.591164,80.163223 68.067703,80.453156 
z"/>
<path fill="#38406A" opacity="1.000000" stroke="none" 
	d="
M64.899368,76.707245 
	C62.793072,76.889427 60.652962,76.794800 58.223366,76.050766 
	C58.622726,74.939201 59.311569,74.477058 60.000412,74.014915 
	C60.708721,74.134819 61.417030,74.254730 62.472301,74.476707 
	C63.501362,75.195999 64.183456,75.813217 64.899368,76.707245 
z"/>
<path fill="#EAE5E8" opacity="1.000000" stroke="none" 
	d="
M61.885468,82.944702 
	C62.079437,82.974197 62.273403,83.003693 62.760590,83.064102 
	C63.039749,83.820435 63.025688,84.545853 63.018013,85.635269 
	C61.948006,86.000984 60.871609,86.002716 59.391655,86.002525 
	C59.531181,85.196518 60.074268,84.392426 61.020634,83.260345 
	C61.423916,82.932358 61.885468,82.944702 61.885468,82.944702 
z"/>
<path fill="#A38E85" opacity="1.000000" stroke="none" 
	d="
M74.329926,61.017227 
	C74.497719,60.175621 74.948395,59.157059 75.772217,58.132240 
	C75.634506,59.030746 75.123657,59.935513 74.329926,61.017227 
z"/>
<path fill="#EFE7E8" opacity="1.000000" stroke="none" 
	d="
M77.751091,74.111374 
	C78.004997,74.383507 78.026352,74.804993 78.066635,75.538857 
	C77.896553,75.321068 77.707550,74.790901 77.751091,74.111374 
z"/>
<path fill="#A38E85" opacity="1.000000" stroke="none" 
	d="
M76.352600,58.090508 
	C76.233124,57.793564 76.416145,57.513397 76.837784,57.138885 
	C76.935974,57.398792 76.795540,57.753040 76.352600,58.090508 
z"/>
<path fill="#F8F1F2" opacity="1.000000" stroke="none" 
	d="
M59.935356,73.651611 
	C59.311569,74.477058 58.622726,74.939201 57.911728,75.716057 
	C57.889572,76.030762 57.959728,76.025482 57.715397,75.942238 
	C57.471066,75.858994 57.007652,76.002991 56.678307,75.860580 
	C54.899261,76.141151 53.449558,76.564133 51.701077,76.843056 
	C49.562050,76.128098 47.721798,75.557205 45.881546,74.986313 
	C45.455490,75.244453 45.029434,75.502594 44.187012,75.623154 
	C43.185116,75.326965 42.599586,75.168365 42.014057,75.009766 
	C41.845161,75.007904 41.676270,75.006042 41.254036,75.001938 
	C39.821281,74.848549 38.641857,74.697411 37.229713,74.274734 
	C37.011772,72.219803 37.026554,70.436386 37.393105,68.313782 
	C38.811623,68.334045 39.878368,68.693497 41.189278,69.355652 
	C43.018333,68.837357 46.250549,72.534874 46.526344,67.623978 
	C46.629787,67.408600 46.887512,67.006203 46.887512,67.006203 
	C51.215107,69.100235 55.542706,71.194275 59.935356,73.651611 
z"/>
<path fill="#EDE5E5" opacity="1.000000" stroke="none" 
	d="
M28.283802,78.964844 
	C28.301966,78.490799 28.603931,77.981598 28.905895,77.472397 
	C29.115068,77.653625 29.324242,77.834854 29.533415,78.016083 
	C29.211477,78.320618 28.889542,78.625153 28.283802,78.964844 
z"/>
<path fill="#EAE5E8" opacity="1.000000" stroke="none" 
	d="
M45.910011,75.417847 
	C47.721798,75.557205 49.562050,76.128098 51.848007,77.183365 
	C52.535923,79.113724 52.778126,80.559723 53.020332,82.005722 
	C51.227196,82.321480 49.434055,82.637230 47.328201,83.013214 
	C46.656479,80.665421 46.297478,78.257393 45.910011,75.417847 
z"/>
<path fill="#EAE5E8" opacity="1.000000" stroke="none" 
	d="
M42.045128,75.310684 
	C42.599586,75.168365 43.185116,75.326965 43.962383,75.731842 
	C43.461479,75.855949 42.768841,75.733780 42.045128,75.310684 
z"/>
<path fill="#F5EEF0" opacity="1.000000" stroke="none" 
	d="
M53.368713,82.001305 
	C52.778126,80.559723 52.535923,79.113724 52.146786,77.327423 
	C53.449558,76.564133 54.899261,76.141151 56.626625,76.278992 
	C56.936790,78.226501 56.969299,79.613197 57.001808,80.999908 
	C55.906902,81.332230 54.812000,81.664558 53.368713,82.001305 
z"/>
<path fill="#38406A" opacity="1.000000" stroke="none" 
	d="
M57.282043,81.166351 
	C56.969299,79.613197 56.936790,78.226501 56.955971,76.421394 
	C57.007652,76.002991 57.471066,75.858994 57.708504,75.907753 
	C57.673500,79.135834 59.433384,80.963821 61.989254,82.569122 
	C61.885468,82.944702 61.423916,82.932358 61.208088,83.014297 
	C59.848934,82.508415 58.705605,81.920609 57.282043,81.166351 
z"/>
<path fill="#EAE5E8" opacity="1.000000" stroke="none" 
	d="
M56.956711,85.674652 
	C56.072948,85.834557 55.144268,85.669106 54.099640,85.250000 
	C54.959728,85.114006 55.935764,85.231659 56.956711,85.674652 
z"/>
<path fill="#F4ECEB" opacity="1.000000" stroke="none" 
	d="
M71.597717,47.982452 
	C71.922897,48.541138 71.952728,48.970039 71.903656,49.713699 
	C70.850655,49.914227 69.152077,50.051540 69.011887,49.647770 
	C67.126724,44.218281 62.482304,44.395470 58.491158,45.184589 
	C54.727493,45.928734 51.277164,48.257641 47.259338,49.733971 
	C46.829674,49.578541 46.711117,49.139236 46.807716,48.711823 
	C46.943699,46.532650 46.983089,44.780888 47.467854,42.940605 
	C50.787300,42.852089 53.661373,42.852089 57.472752,42.852089 
	C56.884674,39.719566 56.442543,37.364464 55.842068,34.749237 
	C54.794140,34.601540 53.904549,34.713966 52.577431,34.786324 
	C50.091904,34.777081 48.043915,34.807903 45.779102,34.598206 
	C44.708481,34.233482 43.854683,34.109276 43.000881,33.985069 
	C44.986332,32.321114 46.730392,29.773336 49.000935,29.153210 
	C56.900909,26.995581 64.950569,27.248821 72.677208,30.155018 
	C74.370537,30.791924 75.561455,32.764591 76.988861,34.488609 
	C73.376846,34.922329 69.745041,35.221916 66.146477,34.994862 
	C62.124363,34.741089 60.789825,36.478500 61.376411,40.811092 
	C62.748043,40.736866 64.114029,40.662941 66.187073,40.356728 
	C68.617752,40.743614 70.341362,41.362782 72.064980,41.981949 
	C71.810776,43.938862 71.556572,45.895767 71.597717,47.982452 
z"/>
<path fill="#B8B0B1" opacity="1.000000" stroke="none" 
	d="
M42.683872,34.020378 
	C43.854683,34.109276 44.708481,34.233482 45.804634,34.962128 
	C45.453445,37.391552 50.237370,39.226547 45.807358,41.027893 
	C45.577923,41.010963 45.120094,41.056744 44.898373,41.044106 
	C44.676651,41.031471 44.232868,41.012955 44.063141,40.724648 
	C42.920872,38.962906 41.948326,37.489479 40.975784,36.016048 
	C40.997833,35.604763 41.019882,35.193478 41.070541,34.477150 
	C41.521725,34.133301 41.944294,34.094498 42.683872,34.020378 
z"/>
<path fill="#E0D7D8" opacity="1.000000" stroke="none" 
	d="
M40.558914,36.010036 
	C41.948326,37.489479 42.920872,38.962906 43.997902,41.058189 
	C44.083019,42.132107 44.063648,42.584179 43.635677,43.024246 
	C42.138065,43.022591 41.049053,43.032932 39.667500,43.010361 
	C38.915474,42.653675 38.455990,42.329903 37.947266,41.661057 
	C36.935764,40.874580 35.973507,40.433182 35.011250,39.991783 
	C34.423813,39.503716 33.836376,39.015644 33.124619,38.263634 
	C35.380882,37.334473 37.761463,36.669247 40.558914,36.010036 
z"/>
<path fill="#A38E85" opacity="1.000000" stroke="none" 
	d="
M79.255096,50.008087 
	C78.993950,49.729797 79.101875,49.470226 79.530548,49.163780 
	C79.792847,49.402866 79.717140,49.706165 79.255096,50.008087 
z"/>
<path fill="#F1E143" opacity="1.000000" stroke="none" 
	d="
M72.418777,41.951683 
	C70.341362,41.362782 68.617752,40.743614 66.492439,40.135914 
	C65.253128,39.779106 64.415520,39.410831 63.577908,39.042557 
	C63.598808,38.645332 63.619705,38.248112 63.640606,37.850891 
	C68.106384,37.555523 72.572159,37.260151 77.484848,37.002319 
	C78.831009,37.522926 79.730247,38.005993 80.815613,38.740273 
	C80.174988,39.131729 79.348236,39.271980 78.364670,39.681068 
	C76.396095,40.607071 74.584335,41.264240 72.418777,41.951683 
z"/>
<path fill="#B7AFAF" opacity="1.000000" stroke="none" 
	d="
M37.996510,42.006130 
	C38.455990,42.329903 38.915474,42.653675 39.820431,43.307503 
	C41.260929,44.285465 42.255955,44.933376 43.250977,45.581284 
	C43.515411,44.732937 43.779846,43.884594 44.044281,43.036247 
	C44.063648,42.584179 44.083019,42.132107 44.167629,41.346497 
	C44.232868,41.012955 44.676651,41.031471 44.875572,41.340782 
	C45.420727,42.058880 45.766960,42.467663 46.343235,42.898399 
	C46.573280,42.920349 47.022476,43.029125 47.022476,43.029125 
	C46.983089,44.780888 46.943699,46.532650 46.432442,48.680214 
	C43.118824,47.962231 40.277084,46.848450 36.994606,45.561932 
	C36.994606,47.469604 36.994606,49.232197 36.995636,51.370564 
	C37.010506,52.497761 37.024353,53.249180 36.814098,54.004478 
	C36.589996,54.008358 36.141968,53.993507 36.141968,53.993507 
	C35.771954,50.293400 35.401943,46.593296 35.030212,42.432152 
	C35.028500,41.971119 35.008739,41.985744 35.257408,42.092316 
	C36.336224,42.134632 37.166367,42.070381 37.996510,42.006130 
z"/>
<path fill="#8F8989" opacity="1.000000" stroke="none" 
	d="
M36.135887,54.398369 
	C36.141968,53.993507 36.589996,54.008358 37.148422,54.069710 
	C40.612194,58.700489 43.517548,63.269920 46.422897,67.839348 
	C46.250549,72.534874 43.018333,68.837357 41.339676,69.029221 
	C43.081348,63.569302 38.781586,61.695332 36.615829,58.792896 
	C36.453819,57.463005 36.291813,56.133118 36.135887,54.398369 
z"/>
<path fill="#B7AFAF" opacity="1.000000" stroke="none" 
	d="
M36.459122,59.185867 
	C38.781586,61.695332 43.081348,63.569302 41.095512,68.726509 
	C39.878368,68.693497 38.811623,68.334045 37.421631,67.868454 
	C36.833061,65.034492 36.567734,62.306667 36.459122,59.185867 
z"/>
<path fill="#D1C8C8" opacity="1.000000" stroke="none" 
	d="
M37.947266,41.661057 
	C37.166367,42.070381 36.336224,42.134632 35.255753,42.100998 
	C35.001343,41.556179 34.997265,41.109241 35.002220,40.327042 
	C35.973507,40.433182 36.935764,40.874580 37.947266,41.661057 
z"/>
<path fill="#676162" opacity="1.000000" stroke="none" 
	d="
M46.526344,67.623978 
	C43.517548,63.269920 40.612194,58.700489 37.372520,54.065830 
	C37.024353,53.249180 37.010506,52.497761 37.379040,51.363541 
	C40.617271,51.316669 43.473129,51.652599 46.328983,51.988525 
	C46.442764,56.728474 46.556541,61.468422 46.778915,66.607285 
	C46.887512,67.006203 46.629787,67.408600 46.526344,67.623978 
z"/>
<path fill="#8F8989" opacity="1.000000" stroke="none" 
	d="
M46.511143,51.790340 
	C43.473129,51.652599 40.617271,51.316669 37.378014,50.987762 
	C36.994606,49.232197 36.994606,47.469604 36.994606,45.561932 
	C40.277084,46.848450 43.118824,47.962231 46.335842,49.107624 
	C46.711117,49.139236 46.829674,49.578541 46.915455,49.789257 
	C46.898590,50.530701 46.795944,51.061428 46.511143,51.790340 
z"/>
<path fill="#6B6565" opacity="1.000000" stroke="none" 
	d="
M47.467850,42.940605 
	C47.022476,43.029125 46.573280,42.920349 46.297493,42.595543 
	C46.026733,41.862099 46.031761,41.453461 46.036789,41.044823 
	C50.237370,39.226547 45.453445,37.391552 46.021454,35.202644 
	C48.043915,34.807903 50.091904,34.777081 52.684662,35.099602 
	C54.153088,35.305080 55.076752,35.157219 56.000412,35.009357 
	C56.442543,37.364464 56.884674,39.719566 57.472752,42.852089 
	C53.661373,42.852089 50.787300,42.852089 47.467850,42.940605 
z"/>
<path fill="#B8B0B1" opacity="1.000000" stroke="none" 
	d="
M55.842072,34.749237 
	C55.076752,35.157219 54.153088,35.305080 53.122192,35.139668 
	C53.904549,34.713966 54.794140,34.601540 55.842072,34.749237 
z"/>
<path fill="#8F8989" opacity="1.000000" stroke="none" 
	d="
M45.807358,41.027893 
	C46.031761,41.453461 46.026733,41.862099 46.067448,42.573593 
	C45.766960,42.467663 45.420727,42.058880 45.097298,41.353416 
	C45.120094,41.056744 45.577923,41.010963 45.807358,41.027893 
z"/>
<path fill="#D1C8C8" opacity="1.000000" stroke="none" 
	d="
M43.635677,43.024246 
	C43.779846,43.884594 43.515411,44.732937 43.250977,45.581284 
	C42.255955,44.933376 41.260929,44.285465 40.112976,43.340416 
	C41.049053,43.032932 42.138065,43.022591 43.635677,43.024246 
z"/>
</svg>